<svg xmlns="http://www.w3.org/2000/svg" version="1.1" xmlns:xlink="http://www.w3.org/1999/xlink" xmlns:svgjs="http://svgjs.dev/svgjs" width="1000" height="210" viewBox="0 0 1000 210"><g transform="matrix(1,0,0,1,-0.29369032092375846,-0.4317696755364011)"><svg viewBox="0 0 399 84" data-background-color="#ffffff" preserveAspectRatio="xMidYMid meet" height="210" width="1000" xmlns="http://www.w3.org/2000/svg" xmlns:xlink="http://www.w3.org/1999/xlink"><g id="tight-bounds" transform="matrix(1,0,0,1,3.36281330989317,13.228955647544922)"><svg viewBox="0 0 395.52 57.160239334301885" height="57.160239334301885" width="395.52"><g><svg viewBox="0 0 506.93327486391223 73.26159819413093" height="57.160239334301885" width="395.52"><g transform="matrix(1,0,0,1,111.41327486391225,10.125155756207675)"><svg viewBox="0 0 395.52 53.011286681715575" height="53.011286681715575" width="395.52"><g><svg viewBox="0 0 395.52 53.011286681715575" height="53.011286681715575" width="395.52"><g><svg viewBox="0 0 395.52 53.011286681715575" height="53.011286681715575" width="395.52"><g transform="matrix(1,0,0,1,0,0)"><svg width="395.52" viewBox="0.25 -36.5 354.3699951171875 47.5" height="53.011286681715575" data-palette-color="#77d4fc"><path d="M9 10.9L9 10.9Q6.35 10.9 4.35 9.93 2.35 8.95 1.3 7.08 0.25 5.2 0.25 2.6L0.25 2.6Q0.25 0.25 1.18-2.6 2.1-5.45 4.55-8.45 7-11.45 11.5-14.2L11.5-14.2 11.5-29.75 4.25-29.75 4.25-35 17.45-35 17.45 1.7Q17.45 4.35 16.48 6.45 15.5 8.55 13.63 9.73 11.75 10.9 9 10.9ZM8.6 5.55L8.6 5.55Q9.45 5.55 10.1 5.1 10.75 4.65 11.1 3.83 11.45 3 11.45 1.85L11.45 1.85 11.45-8.1Q8.7-5.9 7.5-3.9 6.3-1.9 6.05-0.38 5.8 1.15 5.8 1.95L5.8 1.95Q5.8 3.7 6.65 4.63 7.5 5.55 8.6 5.55ZM36.7 0.6L36.7 0.6Q32.75 0.6 29.7-1.18 26.65-2.95 24.87-5.98 23.1-9 23.1-12.75L23.1-12.75Q23.1-16.5 24.87-19.53 26.65-22.55 29.7-24.33 32.75-26.1 36.7-26.1L36.7-26.1Q40.6-26.1 43.65-24.33 46.7-22.55 48.47-19.53 50.25-16.5 50.25-12.75L50.25-12.75Q50.25-9 48.47-5.98 46.7-2.95 43.65-1.18 40.6 0.6 36.7 0.6ZM36.7-4.3L36.7-4.3Q39.05-4.3 40.8-5.43 42.55-6.55 43.5-8.47 44.45-10.4 44.45-12.75L44.45-12.75Q44.45-15.1 43.5-17.03 42.55-18.95 40.8-20.08 39.05-21.2 36.7-21.2L36.7-21.2Q34.3-21.2 32.57-20.08 30.85-18.95 29.87-17.03 28.9-15.1 28.9-12.75L28.9-12.75Q28.9-10.4 29.87-8.47 30.85-6.55 32.57-5.43 34.3-4.3 36.7-4.3ZM68.75 0.6L68.75 0.6Q64.84 0.6 61.85-1.05 58.85-2.7 57.17-5.78 55.5-8.85 55.5-13.05L55.5-13.05 55.5-36.5 61.25-36.5 61.25-21.65 61.3-21.65Q62.1-23 63.4-24 64.7-25 66.3-25.55 67.9-26.1 69.7-26.1L69.7-26.1Q73.34-26.1 76.12-24.48 78.9-22.85 80.47-19.95 82.05-17.05 82.05-13.15L82.05-13.15Q82.05-10.1 81.12-7.58 80.2-5.05 78.47-3.2 76.75-1.35 74.3-0.38 71.84 0.6 68.75 0.6ZM68.75-4.3L68.75-4.3Q70.95-4.3 72.65-5.38 74.34-6.45 75.3-8.35 76.25-10.25 76.25-12.75L76.25-12.75Q76.25-15.2 75.3-17.1 74.34-19 72.67-20.1 71-21.2 68.8-21.2L68.8-21.2Q66.59-21.2 64.9-20.13 63.2-19.05 62.25-17.15 61.3-15.25 61.3-12.75L61.3-12.75Q61.3-10.25 62.25-8.35 63.2-6.45 64.9-5.38 66.59-4.3 68.75-4.3ZM106.44 0L100.44 0 100.44-25.35Q100.49-28.1 101.77-30.28 103.04-32.45 105.22-33.73 107.39-35 110.14-35L110.14-35 122.64-35 122.64-29.75 110.79-29.75Q108.89-29.75 107.67-28.48 106.44-27.2 106.44-25.35L106.44-25.35 106.44-18.95 120.89-18.95 120.89-13.7 106.44-13.7 106.44 0ZM133.59 0L127.84 0 127.84-25.5 133.59-25.5 133.59 0ZM130.69-29.05L130.69-29.05Q129.19-29.05 128.09-30.15 126.99-31.25 126.99-32.75L126.99-32.75Q126.99-34.25 128.09-35.35 129.19-36.45 130.69-36.45L130.69-36.45Q132.24-36.45 133.31-35.35 134.39-34.25 134.39-32.75L134.39-32.75Q134.39-31.25 133.31-30.15 132.24-29.05 130.69-29.05ZM146.24 0L140.49 0 140.49-14.7Q140.49-18 141.99-20.58 143.49-23.15 146.24-24.63 148.99-26.1 152.69-26.1L152.69-26.1Q156.39-26.1 159.11-24.63 161.84-23.15 163.34-20.58 164.84-18 164.84-14.7L164.84-14.7 164.84 0 159.14 0 159.14-14.65Q159.14-16.6 158.24-18.07 157.34-19.55 155.86-20.38 154.39-21.2 152.64-21.2L152.64-21.2Q150.94-21.2 149.46-20.38 147.99-19.55 147.11-18.07 146.24-16.6 146.24-14.65L146.24-14.65 146.24 0ZM183.58 0.6L183.58 0.6Q187.48 0.6 190.48-1.05 193.48-2.7 195.16-5.78 196.83-8.85 196.83-13.05L196.83-13.05 196.83-36.5 191.08-36.5 191.08-21.65 191.03-21.65Q190.23-23 188.93-24 187.63-25 186.03-25.55 184.43-26.1 182.63-26.1L182.63-26.1Q178.98-26.1 176.21-24.48 173.43-22.85 171.86-19.95 170.28-17.05 170.28-13.15L170.28-13.15Q170.28-10.1 171.21-7.58 172.13-5.05 173.86-3.2 175.58-1.35 178.03-0.38 180.48 0.6 183.58 0.6ZM183.58-4.3L183.58-4.3Q181.38-4.3 179.68-5.38 177.98-6.45 177.03-8.35 176.08-10.25 176.08-12.75L176.08-12.75Q176.08-15.2 177.03-17.1 177.98-19 179.66-20.1 181.33-21.2 183.53-21.2L183.53-21.2Q185.73-21.2 187.43-20.13 189.13-19.05 190.08-17.15 191.03-15.25 191.03-12.75L191.03-12.75Q191.03-10.25 190.08-8.35 189.13-6.45 187.43-5.38 185.73-4.3 183.58-4.3ZM223.28 0L216.43 0Q212.13 0 208.91-1.63 205.68-3.25 203.88-6.13 202.08-9 202.08-12.75L202.08-12.75Q202.08-16.7 203.68-19.7 205.28-22.7 208.08-24.4 210.88-26.1 214.53-26.1L214.53-26.1Q218.63-26.1 221.28-24.35 223.93-22.6 225.21-19.65 226.48-16.7 226.48-13.05L226.48-13.05Q226.48-12.55 226.43-11.9 226.38-11.25 226.28-10.9L226.28-10.9 208.18-10.9Q208.48-8.9 209.63-7.58 210.78-6.25 212.53-5.58 214.28-4.9 216.43-4.9L216.43-4.9 223.28-4.9 223.28 0ZM208.13-14.8L208.13-14.8 220.73-14.8Q220.68-15.75 220.46-16.7 220.23-17.65 219.76-18.5 219.28-19.35 218.56-19.98 217.83-20.6 216.83-20.98 215.83-21.35 214.53-21.35L214.53-21.35Q213.03-21.35 211.88-20.78 210.73-20.2 209.93-19.28 209.13-18.35 208.71-17.18 208.28-16 208.13-14.8ZM237.38 0L231.63 0 231.63-18.25Q231.63-21.65 233.55-23.58 235.48-25.5 238.88-25.5L238.88-25.5 245.03-25.5 245.03-20.6 239.93-20.6Q238.73-20.6 238.05-19.9 237.38-19.2 237.38-18L237.38-18 237.38 0ZM263.62 0L257.37 0 269.02-31.4Q269.87-33.55 271.47-34.58 273.07-35.6 275.12-35.6L275.12-35.6Q277.22-35.6 278.85-34.6 280.47-33.6 281.27-31.45L281.27-31.45 292.97 0 286.42 0 283.72-7.75 266.42-7.75 263.62 0ZM274.12-29.4L268.22-13.05 281.92-13.05 276.32-29.4Q276.12-29.9 275.85-30.15 275.57-30.4 275.17-30.4L275.17-30.4Q274.77-30.4 274.52-30.13 274.27-29.85 274.12-29.4L274.12-29.4ZM309.52-26.1L309.52-26.1Q305.62-26.1 302.62-24.45 299.62-22.8 297.95-19.73 296.27-16.65 296.27-12.45L296.27-12.45 296.27 11 302.02 11 302.02-3.85 302.07-3.85Q302.87-2.5 304.17-1.5 305.47-0.5 307.07 0.05 308.67 0.6 310.47 0.6L310.47 0.6Q314.12 0.6 316.9-1.03 319.67-2.65 321.25-5.55 322.82-8.45 322.82-12.35L322.82-12.35Q322.82-15.4 321.9-17.93 320.97-20.45 319.25-22.3 317.52-24.15 315.07-25.13 312.62-26.1 309.52-26.1ZM309.52-21.2L309.52-21.2Q311.72-21.2 313.42-20.13 315.12-19.05 316.07-17.15 317.02-15.25 317.02-12.75L317.02-12.75Q317.02-10.3 316.07-8.4 315.12-6.5 313.45-5.4 311.77-4.3 309.57-4.3L309.57-4.3Q307.37-4.3 305.67-5.38 303.97-6.45 303.02-8.35 302.07-10.25 302.07-12.75L302.07-12.75Q302.07-15.25 303.02-17.15 303.97-19.05 305.67-20.13 307.37-21.2 309.52-21.2ZM341.32-26.1L341.32-26.1Q337.42-26.1 334.42-24.45 331.42-22.8 329.74-19.73 328.07-16.65 328.07-12.45L328.07-12.45 328.07 11 333.82 11 333.82-3.85 333.87-3.85Q334.67-2.5 335.97-1.5 337.27-0.5 338.87 0.05 340.47 0.6 342.27 0.6L342.27 0.6Q345.92 0.6 348.69-1.03 351.47-2.65 353.04-5.55 354.62-8.45 354.62-12.35L354.62-12.35Q354.62-15.4 353.69-17.93 352.77-20.45 351.04-22.3 349.32-24.15 346.87-25.13 344.42-26.1 341.32-26.1ZM341.32-21.2L341.32-21.2Q343.52-21.2 345.22-20.13 346.92-19.05 347.87-17.15 348.82-15.25 348.82-12.75L348.82-12.75Q348.82-10.3 347.87-8.4 346.92-6.5 345.24-5.4 343.57-4.3 341.37-4.3L341.37-4.3Q339.17-4.3 337.47-5.38 335.77-6.45 334.82-8.35 333.87-10.25 333.87-12.75L333.87-12.75Q333.87-15.25 334.82-17.15 335.77-19.05 337.47-20.13 339.17-21.2 341.32-21.2Z" opacity="1" transform="matrix(1,0,0,1,0,0)" fill="#77d4fc" class="undefined-text-0" data-fill-palette-color="primary" id="text-0"></path></svg></g></svg></g></svg></g></svg></g><g><svg viewBox="0 0 98.89858234923956 73.26159819413093" height="73.26159819413093" width="98.89858234923956"><g><svg xmlns="http://www.w3.org/2000/svg" xmlns:xlink="http://www.w3.org/1999/xlink" version="1.1" x="0" y="0" viewBox="8.491820335388184 19.25259780883789 83.0157470703125 61.49599075317383" enable-background="new 0 0 100 100" xml:space="preserve" height="73.26159819413093" width="98.89858234923956" class="icon-icon-0" data-fill-palette-color="accent" id="icon-0"><g display="none" fill="#287392" data-fill-palette-color="accent"><rect x="5" y="5.206" display="inline" fill="none" stroke="#287392" stroke-miterlimit="10" width="90" height="90"></rect><rect x="5" y="5.206" display="inline" fill="none" stroke="#287392" stroke-miterlimit="10" width="90" height="90"></rect></g><g fill="#287392" data-fill-palette-color="accent"><path d="M67.568 28.997c0.935 0.031 1.978 0.059 3.021 0.1 4.991 0.195 9.98 0.428 14.972 0.572 2.043 0.059 3.461 1.177 4.828 2.467 0.16 0.151 0.296 0.384 0.335 0.598 0.309 1.702 0.935 3.339 0.75 5.138-0.273 2.655-0.415 5.325-0.588 7.989-0.196 3.016-0.289 6.032-0.221 9.058 0.047 2.085-0.183 4.174-0.242 6.263-0.092 3.25-0.107 6.493 0.19 9.746 0.242 2.652 0.449 5.33 0.177 8.006-0.049 0.481-0.364 0.824-0.879 0.89-0.341 0.044-0.763-0.087-1.022 0.07-1.499 0.906-3.134 0.674-4.744 0.656-3.253-0.037-6.507-0.076-9.76-0.146-1.392-0.03-2.781-0.162-4.173-0.206-1.276-0.04-2.556-0.068-3.831-0.023-2.434 0.085-4.868 0.246-7.299 0.353-4.641 0.203-9.293 0.165-13.941 0.215-1.51 0.016-3.019-0.007-4.529-0.01-6.389-0.013-12.778-0.029-19.167-0.037-2.208-0.003-4.416 0.019-6.624 0.017-1.163-0.001-2.319-0.054-3.45-0.398-0.936-0.284-1.651-0.784-2.137-1.654-0.524-0.938-0.803-1.901-0.731-2.99 0.192-2.896 0.08-5.799 0.281-8.703 0.151-2.179 0.266-4.384 0.219-6.581-0.045-2.088-0.016-4.183-0.19-6.261-0.32-3.833 0.034-7.658 0.015-11.487-0.011-2.199 0.203-4.4 0.33-6.599 0.04-0.696 0.041-1.409 0.204-2.079 0.555-2.293 2.162-3.865 4.211-4.108 3.805-0.451 7.615-0.863 11.426-1.255 0.567-0.058 1.154 0.107 1.733 0.123 2.09 0.059 4.181 0.108 6.272 0.141 0.961 0.015 1.825-0.292 2.666-0.97 0.195-0.692 0.388-1.48 0.641-2.248 0.216-0.655 0.496-1.29 0.757-1.93 0.934-2.287 2.861-3.32 5.097-3.767 2.042-0.408 4.109-0.772 6.221-0.68 1.393 0.06 2.793 0.109 4.183 0.037 2.263-0.118 4.356 0.532 6.459 1.209 0.929 0.299 1.653 0.851 2.194 1.632 0.66 0.954 1.324 1.913 1.888 2.925 0.819 1.472 1.939 2.59 3.446 3.332C66.868 28.554 67.156 28.752 67.568 28.997zM12.069 55.375c0.003 0 0.006 0 0.009 0-0.041 5.375-0.085 10.751-0.117 16.126-0.004 0.669-0.046 1.365 0.117 2.001 0.189 0.738 0.493 1.432 1.436 1.654 3.616 0.854 7.286 1.249 10.988 1.271 4.037 0.024 8.037 0.463 12.039 0.891 1.565 0.167 3.113 0.285 4.682 0.063 0.773-0.109 1.57-0.2 2.342-0.131 2.68 0.24 5.35 0.343 8.021-0.079 0.329-0.052 0.671-0.024 1.007-0.027 6.158-0.058 12.316-0.145 18.474-0.159 3.148-0.007 6.235-0.593 9.355-0.849 0.659-0.054 1.295-0.349 1.95-0.496 0.96-0.216 1.551-0.791 1.901-1.704 0.351-0.915 0.373-2.003 1.395-2.596 0.197-0.114 0.215-0.615 0.233-0.942 0.05-0.894 0.068-1.79 0.077-2.686 0.026-2.463 0.049-4.925 0.058-7.388 0.016-4.47 0.465-8.942-0.08-13.408-0.013-0.111-0.013-0.224-0.011-0.336 0.043-2.91-0.104-5.81-0.289-8.715-0.213-3.335-0.627-3.527-3.515-4.39-0.533-0.159-1.097-0.269-1.651-0.292-2.002-0.082-3.992-0.443-6.014-0.087-1.209 0.213-2.438 0.1-3.673-0.095-2.65-0.418-5.34-0.521-8.009-0.795-3.222-0.331-6.483-0.317-9.728-0.37-3.244-0.053-6.491 0.014-9.736-0.015-0.681-0.006-1.322 0.011-1.967 0.268-0.513 0.204-1.071 0.298-1.61 0.436-0.624 0.16-1.001-0.428-1.541-0.514-0.33-0.052-0.667-0.102-0.999-0.095-3.47 0.072-6.951 0.01-10.406 0.279-3.128 0.243-6.252 0.491-9.386 0.529-1.169 0.014-2.191 0.371-3.211 0.822-0.755 0.333-1.31 0.911-1.471 1.725-0.217 1.094-0.432 2.205-0.473 3.316-0.165 4.474-0.339 8.95-0.201 13.429C12.098 53.135 12.069 54.255 12.069 55.375zM53.423 22.259c-0.235 0.017-0.352 0.018-0.466 0.035-2.405 0.353-4.84 0.446-7.245 0.723-2.89 0.333-3.601 0.989-4.064 4.234-0.014 0.102 0.045 0.236 0.111 0.324 0.135 0.179 0.275 0.444 0.453 0.481 0.444 0.094 0.913 0.132 1.366 0.099 0.918-0.066 1.85-0.359 2.742-0.255 1.281 0.149 2.538 0.03 3.803-0.007 2.198-0.065 4.392-0.141 6.575 0.237 0.45 0.078 0.922 0.042 1.383 0.042 0.642 0 1.24-0.867 1.058-1.501-0.326-1.131-0.868-2.143-1.664-3.008-0.231-0.251-0.503-0.518-0.811-0.637C55.586 22.609 54.478 22.28 53.423 22.259z" fill="#287392" data-fill-palette-color="accent"></path></g></svg></g></svg></g></svg></g><defs></defs></svg><rect width="395.52" height="57.160239334301885" fill="none" stroke="none" visibility="hidden"></rect></g></svg></g></svg>